# xmcd
#
# Track frame offsets: 
#        150
#        15874
#        34938
#        49492
#        66008
#        79766
#        109070
#        129993
#        147608
#        168213
#        194339
#        212314
#        236195
#        261927
#        276375
#        304137
#        330526
#
# Disc length: 4764 seconds
#
# Revision: 4
# Processed by: cddbd v1.5.2PL0 Copyright (c) Steve Scherf et al.
# Submitted via: ExactAudioCopyFreeDBPlugin 1.0
#
DISCID=f5129a11
DTITLE=Various Artist - Jazzclub Highlights - Swinging Jazz Violin
DYEAR=2007
DGENRE=Jazz
TTITLE0=Stephane Grappelli - Minor Swing
TTITLE1=Stuff Smith - April In Paris
TTITLE2=Svend Asmussen - Praeludium II
TTITLE3=Csaba Deseo - Makin' Whoopee
TTITLE4=Stephane Grappelli and George Shearing - I'm Coming Virginia
TTITLE5=Jean-Luc Ponty - Sunday Walk
TTITLE6=Joe Venuti - After You've Gone
TTITLE7=Svend Asmussen - Prelude For Svend
TTITLE8=Stéphane Grappelli - Tangerine
TTITLE9=Don 'Sugarcane' Harris - Third Time Suspicious
TTITLE10=Stuff Smith - Ain't She Sweet
TTITLE11=The Gypsy Jazz Violin Summit - Satin Doll
TTITLE12=Ray Nance - Some Of These Days
TTITLE13=Stephane Grappelli and George Shearing - Star Eyes
TTITLE14=Jean-Luc Ponty - Cat Coach
TTITLE15=Didier Lockwood - ADGC
TTITLE16=Zipflo Reinhardt - Light Of The Future
EXTD=
EXTT0=
EXTT1=
EXTT2=
EXTT3=
EXTT4=
EXTT5=
EXTT6=
EXTT7=
EXTT8=
EXTT9=
EXTT10=
EXTT11=
EXTT12=
EXTT13=
EXTT14=
EXTT15=
EXTT16=
PLAYORDER=
